<svg width="44" height="44" viewBox="0 0 44 44" fill="none" xmlns="http://www.w3.org/2000/svg">
<path d="M37.6672 22C37.6672 30.6527 30.6528 37.6671 22.0001 37.6671C13.3474 37.6671 6.33301 30.6527 6.33301 22C6.33301 13.3473 13.3474 6.33289 22.0001 6.33289C30.6528 6.33289 37.6672 13.3473 37.6672 22Z" fill="#E2DDEF" stroke="#6E55AF"/>
<path d="M22 1C21.0713 1 20.1562 1.06034 19.2585 1.17742L19.3878 2.16902C17.624 2.39906 15.9324 2.85887 14.3441 3.51745L13.9611 2.59371C12.2532 3.30186 10.6595 4.22863 9.21478 5.33883L9.82409 6.13175C8.43855 7.19645 7.19645 8.43855 6.13176 9.82409L5.33883 9.21478C4.22863 10.6595 3.30186 12.2532 2.59371 13.9611L3.51745 14.3441C2.85887 15.9324 2.39906 17.624 2.16902 19.3878L1.17742 19.2585C1.06034 20.1562 1 21.0713 1 22C1 22.9287 1.06034 23.8438 1.17742 24.7415L2.16902 24.6122C2.39906 26.376 2.85887 28.0676 3.51745 29.6559L2.59371 30.0389C3.30186 31.7468 4.22862 33.3405 5.33883 34.7852L6.13175 34.1759C7.19645 35.5614 8.43855 36.8035 9.82409 37.8682L9.21478 38.6612C10.6595 39.7714 12.2532 40.6981 13.9611 41.4063L14.3441 40.4826C15.9324 41.1411 17.624 41.6009 19.3878 41.831L19.2585 42.8226C20.1562 42.9397 21.0713 43 22 43C22.9287 43 23.8438 42.9397 24.7415 42.8226L24.6122 41.831C26.376 41.6009 28.0676 41.1411 29.6559 40.4826L30.0389 41.4063C31.7468 40.6981 33.3405 39.7714 34.7852 38.6612L34.1759 37.8682C35.5615 36.8035 36.8036 35.5614 37.8682 34.1759L38.6612 34.7852C39.7714 33.3405 40.6981 31.7468 41.4063 30.0389L40.4826 29.6559C41.1411 28.0676 41.6009 26.376 41.831 24.6122L42.8226 24.7415C42.9397 23.8438 43 22.9287 43 22C43 21.0713 42.9397 20.1562 42.8226 19.2585L41.831 19.3878C41.6009 17.624 41.1411 15.9324 40.4826 14.3441L41.4063 13.9611C40.6981 12.2532 39.7714 10.6595 38.6612 9.21478L37.8682 9.82409C36.8035 8.43855 35.5614 7.19645 34.1759 6.13175L34.7852 5.33883C33.3405 4.22862 31.7468 3.30186 30.0389 2.59371L29.6559 3.51745C28.0676 2.85887 26.376 2.39906 24.6122 2.16902L24.7415 1.17742C23.8438 1.06034 22.9287 1 22 1Z" stroke="#6E55AF" stroke-width="2" stroke-dasharray="6 6"/>
<path d="M12.8019 21.2268C12.8019 20.0268 13.0219 18.9068 13.4819 17.8668C13.9219 16.8468 14.5219 15.9668 15.3219 15.2068C16.0819 14.4868 17.0019 13.9068 18.0819 13.4868C19.1419 13.0868 20.3019 12.8668 21.5619 12.8668C22.8219 12.8668 23.9819 13.0868 25.0619 13.4868C26.1219 13.9068 27.0419 14.4868 27.8419 15.2068C28.6019 15.9668 29.2219 16.8468 29.6619 17.8668C30.0819 18.9068 30.3019 20.0268 30.3019 21.2268C30.3019 22.2468 30.1419 23.1868 29.8619 24.0468C29.5619 24.9268 29.1419 25.7268 28.6019 26.4068L30.1019 27.9068L27.7019 30.3268L25.9619 28.5868C25.3219 28.9068 24.6219 29.1668 23.9019 29.3668C23.1619 29.5268 22.3819 29.6268 21.5619 29.6268C20.3019 29.6268 19.1419 29.4068 18.0819 29.0068C17.0019 28.5868 16.0819 28.0068 15.3219 27.2668C14.5219 26.5268 13.9219 25.6468 13.4819 24.6068C13.0219 23.5868 12.8019 22.4668 12.8019 21.2268ZM24.2219 22.0268L25.7619 23.5868C26.0219 22.9068 26.1619 22.1068 26.1619 21.2268C26.1619 20.5268 26.0419 19.8668 25.8419 19.2668C25.6019 18.6668 25.3019 18.1468 24.9019 17.7068C24.5019 17.2668 24.0219 16.9268 23.4619 16.6668C22.8819 16.4268 22.2419 16.3068 21.5619 16.3068C20.8619 16.3068 20.2419 16.4268 19.6819 16.6668C19.1019 16.9268 18.6219 17.2668 18.2219 17.7068C17.8219 18.1468 17.5019 18.6668 17.3019 19.2668C17.0619 19.8668 16.9619 20.5268 16.9619 21.2268C16.9619 21.9668 17.0619 22.6268 17.3019 23.2268C17.5019 23.8468 17.8219 24.3668 18.2219 24.8068C18.6219 25.2468 19.1019 25.5868 19.6819 25.8268C20.2419 26.0868 20.8619 26.2068 21.5619 26.2068C22.2219 26.2068 22.8019 26.1268 23.3219 25.9468L21.8219 24.4468L24.2219 22.0268Z" fill="#6E55AF"/>
</svg>
