<svg width="397" height="215" viewBox="0 0 397 215" fill="none" xmlns="http://www.w3.org/2000/svg">
<g clip-path="url(#clip0_1_837)">
<path d="M326.791 78.8104C311.948 80.694 295.258 85.6384 275.754 97.3833C258.804 107.59 249.764 118.403 241.654 132.886C275.618 127.095 307.041 107.032 326.791 78.8104Z" fill="#B996F1"/>
<path d="M79.3539 108.75C79.8047 109.614 80.476 110.576 81.3828 111.638C80.6864 110.689 80.0101 109.727 79.3539 108.75Z" fill="#B996F1"/>
<path d="M297.908 127.128C317.471 115.045 333.794 98.1272 345.289 78.3194C340.089 78.1416 334.901 78.114 329.867 78.4597C329.546 78.4923 329.228 78.5248 328.905 78.5599C308.729 108.084 275.997 129.006 240.674 134.662C238.493 138.67 236.358 142.955 234.134 147.582C256.62 146.014 278.657 139.02 297.908 127.128Z" fill="#B996F1"/>
<path d="M364.117 132.192C371.799 122.176 377.573 111.846 381.819 102.175C385.703 93.3281 388.311 85.0348 389.934 78.0414C387.053 78.5574 384.103 78.898 381.11 79.1059C372.819 106.671 356.187 131.549 333.526 149.578C305.668 171.74 269.762 182.699 234.322 180.006C232.699 179.883 231.083 179.73 229.463 179.55C225.525 179.112 221.613 178.503 217.733 177.752C216.182 179.838 214.544 181.817 212.806 183.69C248.359 190.679 286.381 186.766 318.605 170.22C319.424 169.799 320.231 169.373 321.03 168.94C339.6 158.933 353.64 145.856 364.122 132.192H364.117Z" fill="#B996F1"/>
<path d="M273.905 149.089C310.4 138.357 341.081 111.766 356.397 78.8379C356.049 78.8204 355.704 78.8029 355.355 78.7828C352.615 78.6401 349.852 78.4948 347.09 78.3846C335.442 98.7359 318.773 116.114 298.747 128.485C279.015 140.673 256.394 147.779 233.335 149.24C232.489 151.011 231.629 152.829 230.745 154.703C245.456 155.003 260.041 153.167 273.905 149.089Z" fill="#B996F1"/>
<path d="M165.997 139.338C171.758 142.056 177.651 144.423 183.638 146.429C184.374 143.246 176.409 141.024 165.997 139.338Z" fill="#B996F1"/>
<path d="M180.224 149.701C181.384 149.047 182.23 148.423 182.796 147.832C175.294 145.297 167.933 142.201 160.799 138.564C153.811 137.598 146.247 136.819 139.697 136.12C150.327 142.467 161.523 148.609 173.205 153.839C175.4 152.483 177.734 151.106 180.224 149.701Z" fill="#B996F1"/>
<path d="M158.517 164.256C160.358 162.715 162.367 161.16 164.561 159.582C157.443 156.308 150.567 152.904 143.987 149.58C132.425 143.737 121.196 137.78 111.305 130.294C102.774 127.328 93.566 123.11 87.0686 117.71C92.6292 123.198 99.317 128.706 106.736 134.081C122.05 145.177 140.473 155.697 158.517 164.256Z" fill="#B996F1"/>
<path d="M144.709 148.153C151.529 151.599 158.67 155.131 166.069 158.515C167.795 157.31 169.626 156.093 171.58 154.855C159.096 149.2 147.178 142.534 135.919 135.709C130.972 135.16 126.91 134.652 124.583 134.123C122.108 133.56 119.27 132.816 116.249 131.899C125.039 138.003 134.75 143.118 144.711 148.153H144.709Z" fill="#B996F1"/>
<path d="M332.529 148.325C354.782 130.624 371.153 106.24 379.406 79.2086C376.831 79.3439 374.227 79.394 371.609 79.3789C361.775 105.226 344.415 128.104 321.852 144.313C294.918 163.66 261.339 172.952 228.348 170.445C226.532 170.307 224.721 170.13 222.91 169.922C221.59 172.143 220.218 174.28 218.772 176.319C222.372 176.998 225.996 177.554 229.641 177.96C266.22 182.042 303.727 171.239 332.532 148.323L332.529 148.325Z" fill="#B996F1"/>
<path d="M320.915 143.015C343.065 127.105 360.145 104.692 369.903 79.3589C365.978 79.3013 362.031 79.126 358.113 78.9256C342.696 112.53 311.502 139.697 274.358 150.62C260.116 154.808 245.12 156.654 230.006 156.276C229.818 156.671 229.633 157.07 229.443 157.47C227.629 161.313 225.766 164.965 223.789 168.414C257.892 172.184 293.012 163.059 320.917 143.013L320.915 143.015Z" fill="#B996F1"/>
<path d="M95.7252 24.5869C97.3057 22.4503 98.6633 20.1059 99.9758 17.8365C100.95 16.1533 101.957 14.415 103.052 12.7644C105.591 8.93706 108.267 6.24442 111.172 4.60129C93.7689 9.80121 78.5474 21.9769 69.6279 37.7921C70.3593 38.278 71.1257 38.8216 71.9247 39.4102C82.1117 37.0006 90.2923 31.9284 95.7227 24.5869H95.7252Z" fill="#B996F1"/>
<path d="M8.76172 22.3802C8.76172 22.3802 8.76923 22.3802 8.77174 22.3802C8.77174 22.3802 8.77174 22.3777 8.76923 22.3752C8.76923 22.3752 8.76422 22.3752 8.76172 22.3777V22.3802Z" fill="#B996F1"/>
<path d="M112.562 3.79726C102.177 3.71961 91.9555 6.96831 83.6196 13.0324C75.7345 18.7683 69.7706 26.8387 66.5695 36.0087C67.3986 36.4045 68.3128 36.9355 69.2947 37.5767C78.5223 21.2305 94.4477 8.75923 112.562 3.79976V3.79726Z" fill="#B996F1"/>
<path d="M37.2611 25.2883C26.8162 21.491 18.4953 20.4716 10.4374 22.007C16.6944 21.8768 22.9889 23.5625 28.3216 26.8337C30.894 28.4117 33.261 30.3579 35.5504 32.239C37.6293 33.9498 39.7809 35.7182 42.0728 37.196C47.5958 40.7628 54.1233 42.7366 60.6908 42.8693C60.771 41.4967 60.9012 40.2844 61.0791 39.2549C53.0462 32.765 45.2413 28.1863 37.2636 25.2858L37.2611 25.2883Z" fill="#B996F1"/>
<path d="M42.1379 19.67C32.5997 16.5215 19.9205 17.3581 10.3773 21.6137C18.5053 20.0683 26.8863 21.0927 37.3964 24.915C45.3591 27.8106 53.1464 32.3642 61.1567 38.8115C61.5224 36.9405 62.0509 35.7582 62.7072 35.4251C62.7673 35.395 62.8299 35.3725 62.8925 35.3499C57.893 28.0986 50.4688 22.4253 42.1379 19.675V19.67Z" fill="#B996F1"/>
<path d="M103.332 20.1009C103.598 19.397 103.853 18.6882 104.111 17.9793C104.99 15.5572 105.897 13.0524 107.137 10.7405C108.637 7.94267 110.441 5.80609 112.517 4.36835C109.221 5.88624 106.225 8.71414 103.387 12.9873C102.3 14.6254 101.296 16.3612 100.324 18.0369C99.0039 20.3138 97.6413 22.6683 96.0482 24.8224C90.6179 32.1639 82.4849 37.2636 72.358 39.7258C74.4245 41.2688 76.6938 43.1023 79.0884 45.066C83.7172 44.2469 88.3385 41.8899 92.1959 38.2605C96.7421 33.9798 100.281 28.2088 103.335 20.0984L103.332 20.1009Z" fill="#B996F1"/>
<path d="M41.8549 37.5341C39.5429 36.0413 37.3838 34.2654 35.2948 32.5496C33.0155 30.676 30.6585 28.7373 28.1111 27.1769C22.5906 23.7929 16.0281 22.1247 9.56073 22.4428C20.0558 23.3646 27.0666 30.5383 33.2885 36.9054C36.8378 40.5374 40.1892 43.9689 43.9288 46.1305C47.8212 48.3773 53.4194 48.728 60.6056 47.1875C60.5856 45.7774 60.6056 44.4699 60.6657 43.2726C60.012 43.26 59.3582 43.23 58.7045 43.1824C52.7356 42.729 46.8819 40.7828 41.8523 37.5341H41.8549Z" fill="#B996F1"/>
<path d="M50.7143 48.4575C47.9916 48.2496 45.6596 47.5908 43.7284 46.4737C39.9412 44.2845 36.5698 40.8354 33.003 37.1835C26.2175 30.2377 19.1891 23.0615 8.00028 22.7459L7.24884 22.7259L7.91261 22.3702C17.7263 17.1177 31.8533 15.8503 42.2657 19.2893C50.7193 22.0796 58.2512 27.8557 63.3008 35.2297C64.0723 35.0995 65.0541 35.3299 66.2038 35.8384C69.435 26.6058 75.444 18.4828 83.3841 12.7068C92.211 6.287 103.137 2.99071 114.148 3.43155L114.922 3.46161L114.23 3.80978C111.575 5.13981 109.306 7.53689 107.488 10.9284C106.263 13.2152 105.359 15.705 104.487 18.1146C104.229 18.8234 103.973 19.5348 103.708 20.2411C100.635 28.4117 97.0627 34.2303 92.469 38.5536C88.6467 42.1529 84.0804 44.5099 79.4842 45.3941C80.5061 46.2332 81.5481 47.0924 82.6076 47.959C89.1702 46.133 95.66 42.4936 100.367 37.0081C102.42 34.6135 104.136 31.8683 105.369 28.7699C109.008 19.6149 109.309 7.49681 118.015 2.88802C95.8103 -0.566073 74.8979 9.07482 64.6208 29.0554C55.3331 22.1698 52.5378 16.6267 45.5544 14.9335C33.6217 12.0355 17.824 14.911 3.9776 22.2675C8.53129 23.3721 13.8164 27.9458 19.7026 33.2284C31.3674 43.6959 45.3966 56.9462 60.7785 51.5158C60.6908 50.1432 60.6357 48.8332 60.6107 47.5958C56.8886 48.3873 53.5823 48.6754 50.7118 48.4575H50.7143Z" fill="#B996F1"/>
<path d="M42.2631 19.2893C31.8508 15.8503 17.7238 17.1177 7.9101 22.3702L7.24634 22.7259L7.99777 22.7459C19.1866 23.059 26.215 30.2352 33.0005 37.1835C36.5673 40.8354 39.9387 44.287 43.7259 46.4737C45.6571 47.5883 47.9891 48.2496 50.7118 48.4575C53.5822 48.6754 56.8886 48.3873 60.6107 47.5958C60.6082 47.4581 60.6056 47.3228 60.6031 47.1875C53.4169 48.7255 47.8162 48.3773 43.9263 46.1305C40.1867 43.9689 36.8328 40.5374 33.286 36.9054C27.0667 30.5383 20.0533 23.3646 9.55825 22.4428C9.35286 22.4529 9.14746 22.4579 8.94458 22.4729C8.87194 22.4729 8.80682 22.4378 8.76674 22.3827C8.76423 22.3827 8.75922 22.3827 8.75672 22.3827C8.75672 22.3827 8.76173 22.3827 8.76423 22.3802C8.7467 22.3527 8.73418 22.3251 8.73167 22.29C8.72416 22.1798 8.80681 22.0847 8.91703 22.0771C9.05729 22.0671 9.19506 22.0646 9.33532 22.0571C9.33282 22.0471 9.3253 22.0396 9.3228 22.0295C9.30026 21.9218 9.36789 21.8166 9.47559 21.7916C9.77366 21.7265 10.0742 21.6764 10.3723 21.6188C19.9155 17.3631 32.5972 16.5265 42.1329 19.6751C50.4613 22.4253 57.8855 28.1011 62.8875 35.35C63.0178 35.2999 63.1505 35.2598 63.2958 35.2372C58.2461 27.8607 50.7143 22.0872 42.2606 19.2968L42.2631 19.2893Z" fill="#8D5FB8"/>
<path d="M37.3989 24.9125C26.8888 21.0903 18.5053 20.0658 10.3798 21.6112C10.0818 21.6689 9.78118 21.7215 9.48311 21.7841C9.37541 21.8066 9.30778 21.9143 9.33032 22.022C9.33032 22.032 9.33783 22.0396 9.34284 22.0496C9.70854 22.0295 10.0742 22.0145 10.4424 22.007C18.5003 20.4716 26.8212 21.491 37.2661 25.2883C45.2438 28.1888 53.0487 32.7675 61.0816 39.2574C61.1066 39.1046 61.1342 38.9518 61.1617 38.8066C53.1539 32.3618 45.3666 27.8056 37.4014 24.91L37.3989 24.9125Z" fill="#8D5FB8"/>
<path d="M35.5503 32.2415C33.261 30.3604 30.894 28.4142 28.3216 26.8362C22.9889 23.565 16.6944 21.8767 10.4374 22.0095C10.0717 22.017 9.70603 22.032 9.33783 22.0521C9.19756 22.0596 9.0598 22.0621 8.91953 22.0721C8.80932 22.0796 8.72666 22.1748 8.73418 22.285C8.73418 22.3201 8.74921 22.3501 8.76674 22.3752C8.76674 22.3752 8.76674 22.3777 8.76924 22.3802C8.80932 22.4378 8.87445 22.4729 8.94708 22.4704C9.15248 22.4553 9.35536 22.4503 9.56075 22.4403C16.0281 22.1222 22.5906 23.7904 28.1112 27.1744C30.6585 28.7373 33.0155 30.6735 35.2949 32.5471C37.3838 34.2654 39.543 36.0413 41.8549 37.5316C46.8845 40.7803 52.7381 42.724 58.707 43.1799C59.3583 43.23 60.012 43.2575 60.6683 43.2701C60.6758 43.1348 60.6833 43.0021 60.6908 42.8718C54.1233 42.7365 47.5958 40.7628 42.0728 37.1985C39.7809 35.7182 37.6293 33.9498 35.5503 32.2415Z" fill="#8D5FB8"/>
<path d="M103.705 20.2411C103.971 19.5348 104.229 18.8259 104.484 18.1146C105.359 15.7075 106.26 13.2152 107.485 10.9284C109.306 7.53689 111.573 5.13982 114.228 3.80978L114.919 3.46162L114.145 3.43156C103.134 2.99322 92.2084 6.28701 83.3816 12.7068C75.4414 18.4828 69.4325 26.6058 66.2013 35.8384C66.3215 35.891 66.4418 35.9461 66.567 36.0062C69.7681 26.8362 75.732 18.7658 83.617 13.0299C91.9529 6.96831 102.175 3.7171 112.56 3.79475C112.835 3.71961 113.108 3.63945 113.386 3.56682L113.507 3.94754C113.171 4.07278 112.843 4.21555 112.515 4.36584C110.441 5.80609 108.635 7.94267 107.134 10.738C105.895 13.0499 104.988 15.5547 104.109 17.9768C103.851 18.6857 103.595 19.3945 103.33 20.0984C100.279 28.2088 96.7396 33.9798 92.1909 38.2605C88.3335 41.8899 83.7122 44.2469 79.0834 45.066C79.2161 45.1737 79.3464 45.2839 79.4791 45.3916C84.0754 44.5074 88.6391 42.1504 92.4639 38.5511C97.0577 34.2278 100.629 28.4092 103.703 20.2386L103.705 20.2411Z" fill="#8D5FB8"/>
<path d="M96.0458 24.8249C97.6388 22.6707 99.0039 20.3163 100.321 18.0394C101.293 16.3612 102.298 14.6279 103.385 12.9898C106.223 8.71662 109.218 5.88873 112.515 4.37083C112.843 4.22055 113.173 4.07777 113.507 3.95253L113.386 3.57181C113.111 3.64445 112.835 3.7246 112.56 3.79974C94.4452 8.76171 78.5198 21.2305 69.2922 37.5767C69.4024 37.6493 69.5152 37.722 69.6279 37.7971C78.5474 21.9819 93.7689 9.8037 111.172 4.60628C108.267 6.25192 105.591 8.94205 103.052 12.7694C101.957 14.4175 100.95 16.1583 99.9758 17.8415C98.6633 20.1084 97.3057 22.4553 95.7252 24.5919C90.2948 31.9334 82.1142 37.0056 71.9273 39.4152C72.07 39.5204 72.2128 39.6256 72.3556 39.7333C82.4824 37.2711 90.6179 32.1689 96.0458 24.8299V24.8249Z" fill="#8D5FB8"/>
<path d="M332.529 148.326C303.725 171.239 266.218 182.045 229.638 177.962C225.991 177.556 222.369 177 218.77 176.321C218.427 176.805 218.081 177.281 217.73 177.754C221.61 178.506 225.523 179.112 229.46 179.553C231.078 179.733 232.697 179.886 234.32 180.008C269.76 182.701 305.666 171.74 333.524 149.58C356.185 131.554 372.816 106.676 381.107 79.1085C380.541 79.1485 379.975 79.1811 379.406 79.2112C371.153 106.243 354.782 130.627 332.529 148.328V148.326Z" fill="#DFB9F0"/>
<path d="M143.987 149.58C150.567 152.907 157.443 156.308 164.561 159.582C165.055 159.229 165.556 158.873 166.069 158.515C158.67 155.131 151.532 151.602 144.709 148.153C134.747 143.118 125.039 138.003 116.247 131.899C114.644 131.413 112.988 130.877 111.305 130.294C121.196 137.78 132.425 143.737 143.987 149.58Z" fill="#DFB9F0"/>
<path d="M173.205 153.836C161.523 148.606 150.327 142.464 139.697 136.117C138.392 135.977 137.127 135.842 135.914 135.706C147.176 142.532 159.094 149.197 171.575 154.853C172.108 154.515 172.652 154.174 173.203 153.834L173.205 153.836Z" fill="#DFB9F0"/>
<path d="M321.849 144.313C344.415 128.104 361.775 105.226 371.607 79.379C371.04 79.3765 370.472 79.3689 369.903 79.3614C360.145 104.692 343.067 127.105 320.915 143.018C293.009 163.064 257.89 172.189 223.787 168.419C223.496 168.925 223.203 169.428 222.908 169.927C224.719 170.137 226.53 170.312 228.346 170.45C261.336 172.958 294.915 163.662 321.849 144.318V144.313Z" fill="#DFB9F0"/>
<path d="M274.356 150.622C311.499 139.699 342.694 112.53 358.111 78.9281C357.537 78.898 356.966 78.8705 356.398 78.8404C341.081 111.766 310.4 138.356 273.905 149.092C260.041 153.17 245.456 155.008 230.745 154.705C230.5 155.226 230.252 155.75 230.001 156.278C245.115 156.659 260.111 154.813 274.353 150.622H274.356Z" fill="#DFB9F0"/>
<path d="M183.638 146.432C177.654 144.423 171.758 142.056 165.997 139.341C164.319 139.068 162.578 138.812 160.799 138.564C167.933 142.201 175.292 145.295 182.796 147.832C183.262 147.346 183.533 146.88 183.638 146.432Z" fill="#DFB9F0"/>
<path d="M298.75 128.488C318.776 116.117 335.445 98.7359 347.092 78.3871C346.491 78.362 345.892 78.3395 345.291 78.3194C333.797 98.1272 317.473 115.045 297.911 127.128C278.659 139.02 256.62 146.014 234.137 147.582C233.874 148.13 233.608 148.684 233.34 149.242C256.397 147.784 279.02 140.678 298.753 128.488H298.75Z" fill="#DFB9F0"/>
<path d="M328.905 78.5599C328.204 78.6376 327.5 78.7202 326.791 78.8104C307.043 107.032 275.618 127.095 241.654 132.886C241.325 133.472 241 134.063 240.674 134.662C275.997 129.004 308.729 108.084 328.905 78.5599Z" fill="#DFB9F0"/>
<path d="M218.767 176.319C220.213 174.28 221.588 172.143 222.905 169.922C223.201 169.423 223.494 168.922 223.785 168.414C225.763 164.965 227.627 161.313 229.438 157.47C229.626 157.07 229.814 156.671 230.001 156.276C230.252 155.747 230.497 155.221 230.745 154.703C231.629 152.832 232.491 151.011 233.335 149.24C233.601 148.681 233.866 148.128 234.132 147.579C236.356 142.953 238.49 138.667 240.672 134.659C240.997 134.061 241.323 133.47 241.651 132.884C249.762 118.401 258.799 107.59 275.751 97.3808C295.256 85.6359 311.945 80.6915 326.789 78.8079C327.497 78.7177 328.201 78.6325 328.903 78.5574C329.223 78.5223 329.544 78.4898 329.864 78.4572C327.588 78.6125 325.343 78.8429 323.144 79.1736C319.059 79.7897 314.958 80.7992 310.993 81.776C305.265 83.1862 299.344 84.644 293.345 84.9521C291.879 85.0272 290.329 85.0122 288.743 84.892C280.538 84.2683 271.34 80.8242 267.37 72.5209C265.99 73.7457 264.943 75.3438 264.48 77.1071C264.43 77.2975 264.252 77.4177 264.064 77.4052C264.041 77.4052 264.016 77.4002 263.991 77.3927C263.778 77.3376 263.651 77.1171 263.706 76.9042C264.748 72.9342 268.325 69.8332 272.402 69.3648C272.623 69.3423 272.821 69.4976 272.846 69.7155C272.871 69.9359 272.713 70.1338 272.495 70.1589C270.877 70.3442 269.321 71.008 268.004 71.9974C272.51 81.6934 284.44 84.6064 293.305 84.1531C299.226 83.85 305.112 82.3997 310.803 80.9995C314.786 80.0202 318.904 79.0057 323.026 78.3846C333.319 76.8316 344.545 77.4177 355.401 77.9838C367.399 78.61 379.805 79.2587 391.016 77.027C391.229 76.9819 391.429 77.1197 391.479 77.3275C396.374 75.9825 397.967 68.0248 396.469 57.8028C395.738 52.8108 394.267 47.2777 392.083 41.7096C382.445 17.1452 355.846 2.19168 329.524 0.260495C303.201 -1.67069 277.247 7.3365 253.554 18.9637C229.861 30.5934 207.503 44.9683 183.092 55.0024C175.447 58.1434 168.549 61.3721 161.571 63.937C146.267 69.5677 130.587 72.0249 105.829 63.4511C98.7785 61.0089 90.2798 54.2535 82.6051 47.959C81.5456 47.0899 80.5036 46.2307 79.4817 45.3941C79.3489 45.2864 79.2162 45.1762 79.0859 45.0685C76.6913 43.1047 74.422 41.2713 72.3556 39.7283C72.2128 39.6206 72.07 39.5154 71.9273 39.4102C71.1282 38.8216 70.3593 38.278 69.6304 37.7921C69.5177 37.717 69.4075 37.6443 69.2947 37.5717C68.3129 36.933 67.3986 36.402 66.5695 36.0037C66.4468 35.9436 66.3241 35.891 66.2038 35.8359C65.0516 35.3274 64.0723 35.097 63.3008 35.2272C63.158 35.2523 63.0228 35.2923 62.8925 35.3399C62.8299 35.365 62.7673 35.385 62.7072 35.4151C62.0509 35.7482 61.5224 36.9305 61.1567 38.8015C61.1292 38.9468 61.1016 39.0996 61.0766 39.2524C60.8987 40.2819 60.7685 41.4942 60.6883 42.8668C60.6808 42.9995 60.6733 43.1298 60.6658 43.2651C60.6057 44.4598 60.5856 45.7698 60.6057 47.18C60.6057 47.3153 60.6107 47.453 60.6132 47.5883C60.6382 48.8232 60.6933 50.1332 60.781 51.5083C61.4698 62.2413 64.1975 76.9143 70.0437 91.1139C72.5459 97.193 75.6218 103.182 79.3539 108.742C80.0102 109.719 80.6865 110.684 81.3828 111.631C81.6383 111.976 81.8938 112.324 82.1543 112.667C83.5043 114.446 85.1725 116.124 87.0712 117.702C93.5686 123.105 102.776 127.323 111.307 130.286C112.991 130.87 114.644 131.406 116.249 131.892C119.268 132.808 122.106 133.552 124.583 134.116C126.91 134.644 130.975 135.153 135.919 135.701C137.132 135.834 138.397 135.972 139.702 136.112C146.252 136.811 153.814 137.593 160.804 138.557C162.583 138.802 164.324 139.06 166.002 139.333C176.414 141.022 184.379 143.243 183.643 146.424C183.54 146.873 183.267 147.336 182.801 147.825C182.235 148.418 181.389 149.039 180.229 149.693C177.742 151.098 175.405 152.476 173.211 153.831C172.659 154.172 172.116 154.512 171.582 154.85C169.629 156.088 167.798 157.305 166.072 158.51C165.561 158.866 165.057 159.221 164.564 159.577C162.37 161.155 160.361 162.71 158.52 164.251C147.116 173.787 142.116 182.721 138.935 192.923C136.866 199.556 135.561 206.722 133.76 214.945C150.71 203.801 174.065 205.672 191.989 198.173C200.503 194.611 207.2 189.715 212.806 183.683C214.547 181.809 216.183 179.831 217.733 177.744C218.084 177.273 218.429 176.795 218.772 176.311L218.767 176.319ZM348.054 31.7506C349.041 30.5057 350.847 30.2978 352.092 31.2822C353.337 32.2691 353.545 34.075 352.56 35.3199C351.573 36.5648 349.767 36.7727 348.523 35.7883C347.278 34.8014 347.07 32.9955 348.054 31.7506ZM371.146 34.5384C370.417 35.4577 369.082 35.613 368.162 34.8841C367.243 34.1552 367.088 32.8201 367.817 31.9034C368.546 30.9841 369.881 30.8288 370.8 31.5577C371.719 32.2866 371.875 33.6217 371.146 34.5384ZM366.394 22.7284C367.123 21.8091 368.458 21.6538 369.377 22.3827C370.297 23.1116 370.452 24.4466 369.723 25.3634C368.994 26.2826 367.659 26.4379 366.74 25.7091C365.821 24.9802 365.665 23.6451 366.394 22.7284ZM360.979 36.3969C360.25 37.3162 358.915 37.4715 357.996 36.7426C357.076 36.0137 356.921 34.6787 357.65 33.7619C358.379 32.8427 359.714 32.6874 360.633 33.4163C361.552 34.1451 361.708 35.4802 360.979 36.3969ZM352.533 21.4735C354.018 19.5974 356.736 19.2768 358.602 20.7571C360.468 22.2349 360.776 24.9551 359.291 26.8287C357.805 28.7023 355.088 29.0254 353.221 27.5451C351.355 26.0672 351.047 23.347 352.533 21.4735ZM345.499 14.2221C346.534 12.9171 348.43 12.6967 349.735 13.7312C351.04 14.7657 351.26 16.6618 350.226 17.9668C349.191 19.2718 347.295 19.4922 345.99 18.4577C344.685 17.4232 344.465 15.5271 345.499 14.2221ZM340.129 23.1542C341.737 21.1253 344.688 20.7822 346.719 22.3902C348.75 23.9983 349.091 26.9489 347.483 28.9778C345.875 31.0067 342.924 31.3498 340.893 29.7417C338.862 28.1337 338.521 25.1831 340.129 23.1542ZM332.793 15.993C333.521 15.0738 334.856 14.9185 335.776 15.6474C336.695 16.3762 336.85 17.7113 336.121 18.628C335.392 19.5473 334.057 19.7001 333.138 18.9737C332.219 18.2448 332.064 16.9098 332.793 15.993ZM283.1 25.4135C289.813 25.3684 295.291 30.7712 295.336 37.4815C295.381 44.1918 289.978 49.6698 283.266 49.7149C276.553 49.7599 271.075 44.3571 271.03 37.6468C270.985 30.9365 276.387 25.4586 283.1 25.4135ZM119.042 112.745C117.88 114.661 115.385 115.275 113.467 114.115C111.548 112.953 110.937 110.458 112.096 108.542C113.259 106.623 115.753 106.012 117.672 107.172C119.591 108.334 120.202 110.829 119.042 112.745ZM99.4698 97.8993C101.366 94.7708 105.439 93.7714 108.567 95.665C111.696 97.5586 112.698 101.631 110.801 104.76C108.905 107.888 104.833 108.888 101.704 106.994C98.5756 105.101 97.5737 101.028 99.4698 97.8993ZM126.907 113.775C125.492 112.918 125.039 111.074 125.895 109.659C126.752 108.244 128.595 107.791 130.013 108.647C131.428 109.504 131.882 111.347 131.025 112.763C130.168 114.178 128.325 114.631 126.907 113.775ZM143.93 104.246C145.345 105.103 145.798 106.947 144.942 108.362C144.085 109.777 142.241 110.23 140.824 109.374C139.409 108.517 138.955 106.674 139.812 105.258C140.668 103.843 142.512 103.39 143.93 104.246ZM136.195 92.6543C137.052 91.2391 138.895 90.7857 140.313 91.6424C141.728 92.499 142.181 94.3425 141.325 95.7577C140.468 97.1729 138.625 97.6263 137.207 96.7696C135.792 95.913 135.338 94.0695 136.195 92.6543ZM116.552 93.3481C118.303 90.4576 122.053 89.5283 124.931 91.2691C127.806 93.01 128.721 96.7646 126.97 99.6551C125.219 102.546 121.469 103.475 118.591 101.734C115.716 99.9933 114.802 96.2386 116.552 93.3481ZM105.416 84.4311C106.633 82.4198 109.253 81.776 111.265 82.9959C113.276 84.2132 113.92 86.8307 112.703 88.842C111.485 90.8534 108.865 91.4971 106.854 90.2773C104.843 89.0599 104.199 86.4424 105.416 84.4311ZM87.9253 89.1626C88.7819 87.7474 90.6254 87.2941 92.0431 88.1507C93.4583 89.0073 93.9117 90.8508 93.0551 92.266C92.1984 93.6812 90.3549 94.1346 88.9372 93.278C87.522 92.4213 87.0686 90.5778 87.9253 89.1626Z" fill="#5A3D99"/>
<path d="M283.265 49.7124C289.978 49.6673 295.381 44.1893 295.336 37.479C295.291 30.7687 289.813 25.3659 283.1 25.411C276.387 25.4561 270.985 30.934 271.03 37.6443C271.075 44.3546 276.553 49.7574 283.265 49.7124ZM286.842 30.135C290.933 30.1074 294.271 33.3987 294.299 37.489C294.327 41.5793 291.033 44.9157 286.945 44.9433C282.855 44.9708 279.518 41.6795 279.488 37.5892C279.458 33.4989 282.755 30.1626 286.842 30.135Z" fill="white"/>
<path d="M286.942 44.9407C291.033 44.9132 294.327 41.5743 294.296 37.4865C294.269 33.3987 290.93 30.1049 286.84 30.1325C282.749 30.16 279.458 33.4989 279.486 37.5867C279.513 41.6745 282.852 44.9683 286.942 44.9407ZM291.153 36.6424C292.132 36.6349 292.931 37.4239 292.939 38.4033C292.946 39.3826 292.157 40.1817 291.178 40.1892C290.199 40.1967 289.4 39.4077 289.392 38.4283C289.385 37.449 290.174 36.6499 291.153 36.6424ZM281.399 35.8234C281.397 35.3349 281.79 34.9342 282.281 34.9317C282.77 34.9291 283.17 35.3224 283.173 35.8108C283.175 36.2993 282.782 36.7 282.291 36.7025C281.803 36.705 281.402 36.3118 281.399 35.8234Z" fill="#302E2E"/>
<path d="M291.178 40.1867C292.157 40.1792 292.946 39.3801 292.939 38.4008C292.931 37.4214 292.132 36.6324 291.153 36.6399C290.174 36.6474 289.385 37.4465 289.392 38.4258C289.4 39.4052 290.199 40.1942 291.178 40.1867Z" fill="white"/>
<path d="M283.173 35.8108C283.17 35.3224 282.77 34.9266 282.281 34.9317C281.793 34.9342 281.397 35.3349 281.399 35.8234C281.402 36.3118 281.803 36.7075 282.291 36.7025C282.78 36.7 283.175 36.2993 283.173 35.8108Z" fill="white"/>
<path d="M267.445 71.7469C267.646 71.6542 267.884 71.7419 267.976 71.9423C267.986 71.9623 267.996 71.9823 268.006 72.0024C269.324 71.013 270.879 70.3492 272.497 70.1639C272.715 70.1388 272.873 69.941 272.848 69.7205C272.823 69.5026 272.625 69.3448 272.405 69.3699C268.327 69.8383 264.75 72.9392 263.708 76.9092C263.653 77.1221 263.781 77.3401 263.994 77.3977C264.016 77.4052 264.041 77.4077 264.066 77.4102C264.254 77.4252 264.432 77.3025 264.482 77.1121C264.946 75.3488 265.992 73.7507 267.373 72.5259C267.333 72.4432 267.29 72.3606 267.252 72.2779C267.16 72.0775 267.247 71.8396 267.448 71.7494L267.445 71.7469Z" fill="#302E2E"/>
<path d="M110.801 104.76C112.697 101.631 111.696 97.5586 108.567 95.665C105.439 93.7714 101.366 94.7708 99.4698 97.8993C97.5736 101.028 98.5756 105.101 101.704 106.994C104.832 108.888 108.905 107.888 110.801 104.76Z" fill="#B996F1"/>
<path d="M112.096 108.54C110.934 110.456 111.548 112.953 113.466 114.113C115.385 115.275 117.88 114.661 119.042 112.743C120.204 110.826 119.591 108.329 117.672 107.169C115.753 106.007 113.259 106.621 112.096 108.54Z" fill="#B996F1"/>
<path d="M106.851 90.2772C108.863 91.4946 111.48 90.8508 112.7 88.842C113.917 86.8307 113.276 84.2132 111.262 82.9959C109.251 81.7785 106.633 82.4223 105.414 84.4311C104.196 86.4424 104.84 89.0599 106.851 90.2772Z" fill="#B996F1"/>
<path d="M131.022 112.763C131.879 111.347 131.428 109.504 130.011 108.647C128.595 107.791 126.752 108.242 125.893 109.659C125.036 111.074 125.487 112.918 126.905 113.775C128.32 114.631 130.163 114.18 131.022 112.763Z" fill="#B996F1"/>
<path d="M137.204 96.7722C138.619 97.6288 140.463 97.1779 141.322 95.7602C142.179 94.345 141.728 92.5015 140.31 91.6449C138.895 90.7882 137.051 91.2391 136.192 92.6568C135.336 94.072 135.787 95.9155 137.204 96.7722Z" fill="#B996F1"/>
<path d="M139.812 105.256C138.955 106.671 139.406 108.515 140.824 109.371C142.239 110.228 144.082 109.777 144.942 108.359C145.798 106.944 145.347 105.101 143.93 104.244C142.514 103.387 140.671 103.838 139.812 105.256Z" fill="#B996F1"/>
<path d="M88.9372 93.278C90.3524 94.1346 92.1959 93.6838 93.0551 92.266C93.9117 90.8508 93.4608 89.0073 92.0431 88.1507C90.6279 87.2941 88.7844 87.7449 87.9253 89.1626C87.0686 90.5778 87.5195 92.4213 88.9372 93.278Z" fill="#B996F1"/>
<path d="M118.591 101.734C121.467 103.475 125.219 102.546 126.97 99.6552C128.721 96.7646 127.806 93.0125 124.931 91.2692C122.055 89.5283 118.303 90.4576 116.552 93.3481C114.802 96.2386 115.716 99.9908 118.591 101.734Z" fill="#B996F1"/>
<path d="M340.893 29.7443C342.924 31.3523 345.872 31.0117 347.483 28.9803C349.091 26.9514 348.75 24.0008 346.719 22.3927C344.688 20.7847 341.74 21.1253 340.129 23.1567C338.521 25.1856 338.862 28.1362 340.893 29.7443Z" fill="#B996F1"/>
<path d="M352.56 35.3199C353.547 34.075 353.337 32.2691 352.092 31.2822C350.847 30.2953 349.038 30.5057 348.054 31.7506C347.067 32.9955 347.278 34.8014 348.522 35.7883C349.767 36.7752 351.576 36.5648 352.56 35.3199Z" fill="#B996F1"/>
<path d="M345.99 18.4552C347.295 19.4897 349.191 19.2693 350.226 17.9643C351.26 16.6593 351.04 14.7632 349.735 13.7287C348.43 12.6942 346.534 12.9146 345.499 14.2196C344.465 15.5246 344.685 17.4207 345.99 18.4552Z" fill="#B996F1"/>
<path d="M357.65 33.7594C356.921 34.6787 357.076 36.0137 357.996 36.7401C358.915 37.469 360.25 37.3137 360.979 36.3945C361.708 35.4752 361.552 34.1401 360.633 33.4138C359.714 32.6849 358.379 32.8402 357.65 33.7594Z" fill="#B996F1"/>
<path d="M366.74 25.7091C367.659 26.4379 368.994 26.2826 369.723 25.3634C370.452 24.4441 370.297 23.1091 369.377 22.3827C368.458 21.6563 367.123 21.8091 366.394 22.7284C365.665 23.6476 365.821 24.9827 366.74 25.7091Z" fill="#B996F1"/>
<path d="M367.819 31.9009C367.09 32.8201 367.246 34.1552 368.165 34.8816C369.084 35.6104 370.419 35.4552 371.148 34.5359C371.877 33.6166 371.722 32.2816 370.803 31.5552C369.883 30.8263 368.548 30.9816 367.819 31.9009Z" fill="#B996F1"/>
<path d="M333.138 18.9762C334.057 19.7051 335.392 19.5498 336.121 18.6305C336.85 17.7113 336.695 16.3762 335.776 15.6499C334.856 14.9235 333.521 15.0763 332.792 15.9955C332.064 16.9148 332.219 18.2498 333.138 18.9762Z" fill="#B996F1"/>
<path d="M353.221 27.5451C355.088 29.0229 357.805 28.7023 359.291 26.8287C360.776 24.9551 360.468 22.2349 358.602 20.7571C356.736 19.2793 354.018 19.5999 352.533 21.4735C351.047 23.3471 351.355 26.0672 353.221 27.5451Z" fill="#B996F1"/>
<path d="M391.484 77.3451C391.484 77.3451 391.479 77.3351 391.479 77.33C391.429 77.1222 391.226 76.9869 391.016 77.0295C379.805 79.2612 367.399 78.6125 355.401 77.9863C344.545 77.4177 333.318 76.8316 323.026 78.3871C318.906 79.0083 314.786 80.0227 310.803 81.0021C305.112 82.4022 299.226 83.85 293.305 84.1556C284.443 84.6089 272.51 81.6959 268.004 71.9999C267.994 71.9798 267.984 71.9598 267.974 71.9398C267.881 71.7394 267.643 71.6517 267.443 71.7444C267.242 71.8371 267.155 72.075 267.247 72.2729C267.287 72.3581 267.33 72.4382 267.368 72.5209C271.338 80.8242 280.535 84.2683 288.741 84.892C290.326 85.0122 291.877 85.0272 293.342 84.9521C299.341 84.644 305.262 83.1862 310.991 81.776C314.956 80.7992 319.056 79.7897 323.142 79.1736C325.341 78.8404 327.588 78.6125 329.862 78.4572C334.897 78.1115 340.084 78.1391 345.284 78.3169C345.885 78.337 346.484 78.3595 347.085 78.3846C349.85 78.4948 352.613 78.64 355.351 78.7828C355.696 78.8004 356.044 78.8179 356.393 78.8379C356.964 78.868 357.535 78.898 358.106 78.9256C362.023 79.126 365.971 79.3013 369.896 79.3589C370.464 79.3664 371.033 79.3739 371.599 79.3764C374.217 79.3915 376.821 79.3414 379.396 79.2061C379.965 79.1761 380.534 79.141 381.097 79.1034C384.093 78.8955 387.041 78.5574 389.921 78.0389C390.335 77.9638 390.751 77.8936 391.161 77.8135C391.377 77.7709 391.517 77.5605 391.474 77.3451H391.484Z" fill="#302E2E"/>
</g>
<defs>
<clipPath id="clip0_1_837">
<rect width="397.01" height="214.95" fill="white"/>
</clipPath>
</defs>
</svg>
